<?xml version="1.0" encoding="us-ascii" standalone="no"?><svg xmlns="http://www.w3.org/2000/svg" xmlns:xlink="http://www.w3.org/1999/xlink" contentStyleType="text/css" height="930px" preserveAspectRatio="none" style="width:2391px;height:930px;background:#FFFFFF;" version="1.1" viewBox="0 0 2391 930" width="2391px" zoomAndPan="magnify"><defs/><g><text fill="#000000" font-family="sans-serif" font-size="14" font-weight="bold" lengthAdjust="spacing" textLength="334" x="1021.93" y="24.5332">Event Management System - Clean Architecture</text><!--cluster Presentation--><g id="cluster_Presentation"><rect fill="none" height="366.5" rx="2.5" ry="2.5" style="stroke:#181818;stroke-width:1.0;" width="415" x="1297.36" y="45.6094"/><text fill="#000000" font-family="sans-serif" font-size="14" font-weight="bold" lengthAdjust="spacing" textLength="132" x="1438.86" y="62.1426">Presentation Layer</text><text fill="#000000" font-family="sans-serif" font-size="14" font-weight="bold" lengthAdjust="spacing" textLength="116" x="1446.86" y="79.752">src/presentation</text></g><!--cluster Application--><g id="cluster_Application"><rect fill="none" height="232" rx="2.5" ry="2.5" style="stroke:#181818;stroke-width:1.0;" width="511" x="50.36" y="452.1094"/><text fill="#000000" font-family="sans-serif" font-size="14" font-weight="bold" lengthAdjust="spacing" textLength="120" x="245.86" y="468.6426">Application Layer</text><text fill="#000000" font-family="sans-serif" font-size="14" font-weight="bold" lengthAdjust="spacing" textLength="103" x="254.36" y="486.252">src/application</text></g><!--cluster Domain--><g id="cluster_Domain"><rect fill="none" height="356.5" rx="2.5" ry="2.5" style="stroke:#181818;stroke-width:1.0;" width="610" x="593.36" y="568.1094"/><text fill="#000000" font-family="sans-serif" font-size="14" font-weight="bold" lengthAdjust="spacing" textLength="94" x="851.36" y="584.6426">Domain Layer</text><text fill="#000000" font-family="sans-serif" font-size="14" font-weight="bold" lengthAdjust="spacing" textLength="77" x="859.86" y="602.252">src/domain</text></g><!--cluster Infrastructure--><g id="cluster_Infrastructure"><rect fill="none" height="476.5" rx="2.5" ry="2.5" style="stroke:#181818;stroke-width:1.0;" width="602" x="1489.36" y="444.1094"/><text fill="#000000" font-family="sans-serif" font-size="14" font-weight="bold" lengthAdjust="spacing" textLength="139" x="1720.86" y="460.6426">Infrastructure Layer</text><text fill="#000000" font-family="sans-serif" font-size="14" font-weight="bold" lengthAdjust="spacing" textLength="123" x="1728.86" y="478.252">src/infrastructure</text></g><!--entity FastAPIApp--><g id="elem_FastAPIApp"><rect fill="#F1F1F1" height="55.2188" rx="2.5" ry="2.5" style="stroke:#181818;stroke-width:0.5;" width="98" x="1574.36" y="99.6094"/><text fill="#000000" font-family="sans-serif" font-size="14" lengthAdjust="spacing" textLength="78" x="1584.36" y="124.1426">FastAPI App</text><text fill="#000000" font-family="sans-serif" font-size="14" lengthAdjust="spacing" textLength="49" x="1584.36" y="141.752">main.py</text></g><!--entity Routers--><g id="elem_Routers"><rect fill="#F1F1F1" height="55.2188" rx="2.5" ry="2.5" style="stroke:#181818;stroke-width:0.5;" width="145" x="1550.86" y="226.1094"/><text fill="#000000" font-family="sans-serif" font-size="14" lengthAdjust="spacing" textLength="75" x="1560.86" y="250.6426">API Routers</text><text fill="#000000" font-family="sans-serif" font-size="14" lengthAdjust="spacing" textLength="125" x="1560.86" y="268.252">src/presentation/api</text></g><!--entity Schemas--><g id="elem_Schemas"><rect fill="#F1F1F1" height="55.2188" rx="2.5" ry="2.5" style="stroke:#181818;stroke-width:0.5;" width="203" x="1313.86" y="341.1094"/><text fill="#000000" font-family="sans-serif" font-size="14" lengthAdjust="spacing" textLength="183" x="1323.86" y="365.6426">Request/Response Schemas</text><text fill="#000000" font-family="sans-serif" font-size="14" lengthAdjust="spacing" textLength="162" x="1323.86" y="383.252">src/presentation/schemas</text></g><!--entity Dependencies--><g id="elem_Dependencies"><rect fill="#F1F1F1" height="55.2188" rx="2.5" ry="2.5" style="stroke:#181818;stroke-width:0.5;" width="144" x="1552.36" y="341.1094"/><text fill="#000000" font-family="sans-serif" font-size="14" lengthAdjust="spacing" textLength="124" x="1562.36" y="365.6426">Dependency Wiring</text><text fill="#000000" font-family="sans-serif" font-size="14" lengthAdjust="spacing" textLength="108" x="1562.36" y="383.252">dependencies.py</text></g><!--entity Commands--><g id="elem_Commands"><rect fill="#F1F1F1" height="37.6094" rx="2.5" ry="2.5" style="stroke:#181818;stroke-width:0.5;" width="91" x="263.86" y="630.1094"/><text fill="#000000" font-family="sans-serif" font-size="14" lengthAdjust="spacing" textLength="71" x="273.86" y="654.6426">Commands</text></g><!--entity CommandHandlers--><g id="elem_CommandHandlers"><rect fill="#F1F1F1" height="37.6094" rx="2.5" ry="2.5" style="stroke:#181818;stroke-width:0.5;" width="144" x="398.36" y="506.1094"/><text fill="#000000" font-family="sans-serif" font-size="14" lengthAdjust="spacing" textLength="124" x="408.36" y="530.6426">Command Handlers</text></g><!--entity Queries--><g id="elem_Queries"><rect fill="#F1F1F1" height="37.6094" rx="2.5" ry="2.5" style="stroke:#181818;stroke-width:0.5;" width="70" x="66.36" y="630.1094"/><text fill="#000000" font-family="sans-serif" font-size="14" lengthAdjust="spacing" textLength="50" x="76.36" y="654.6426">Queries</text></g><!--entity QueryHandlers--><g id="elem_QueryHandlers"><rect fill="#F1F1F1" height="37.6094" rx="2.5" ry="2.5" style="stroke:#181818;stroke-width:0.5;" width="119" x="191.86" y="506.1094"/><text fill="#000000" font-family="sans-serif" font-size="14" lengthAdjust="spacing" textLength="99" x="201.86" y="530.6426">Query Handlers</text></g><!--entity DTOs--><g id="elem_DTOs"><rect fill="#F1F1F1" height="37.6094" rx="2.5" ry="2.5" style="stroke:#181818;stroke-width:0.5;" width="57" x="171.86" y="630.1094"/><text fill="#000000" font-family="sans-serif" font-size="14" lengthAdjust="spacing" textLength="37" x="181.86" y="654.6426">DTOs</text></g><!--entity AppInterfaces--><g id="elem_AppInterfaces"><rect fill="#F1F1F1" height="37.6094" rx="2.5" ry="2.5" style="stroke:#181818;stroke-width:0.5;" width="155" x="389.86" y="630.1094"/><text fill="#000000" font-family="sans-serif" font-size="14" lengthAdjust="spacing" textLength="135" x="399.86" y="654.6426">Application Interfaces</text></g><!--entity Aggregates--><g id="elem_Aggregates"><rect fill="#F1F1F1" height="55.2188" rx="2.5" ry="2.5" style="stroke:#181818;stroke-width:0.5;" width="169" x="772.86" y="730.6094"/><text fill="#000000" font-family="sans-serif" font-size="14" lengthAdjust="spacing" textLength="73" x="782.86" y="755.1426">Aggregates</text><text fill="#000000" font-family="sans-serif" font-size="14" lengthAdjust="spacing" textLength="149" x="782.86" y="772.752">Event, Booking, Refund</text></g><!--entity Entities--><g id="elem_Entities"><rect fill="#F1F1F1" height="55.2188" rx="2.5" ry="2.5" style="stroke:#181818;stroke-width:0.5;" width="162" x="776.36" y="845.6094"/><text fill="#000000" font-family="sans-serif" font-size="14" lengthAdjust="spacing" textLength="46" x="786.36" y="870.1426">Entities</text><text fill="#000000" font-family="sans-serif" font-size="14" lengthAdjust="spacing" textLength="142" x="786.36" y="887.752">TicketCategory, Ticket</text></g><!--entity ValueObjects--><g id="elem_ValueObjects"><rect fill="#F1F1F1" height="55.2188" rx="2.5" ry="2.5" style="stroke:#181818;stroke-width:0.5;" width="205" x="973.86" y="845.6094"/><text fill="#000000" font-family="sans-serif" font-size="14" lengthAdjust="spacing" textLength="88" x="983.86" y="870.1426">Value Objects</text><text fill="#000000" font-family="sans-serif" font-size="14" lengthAdjust="spacing" textLength="185" x="983.86" y="887.752">Money, DateRange, Statuses</text></g><!--entity DomainServices--><g id="elem_DomainServices"><rect fill="#F1F1F1" height="37.6094" rx="2.5" ry="2.5" style="stroke:#181818;stroke-width:0.5;" width="186" x="636.36" y="630.1094"/><text fill="#000000" font-family="sans-serif" font-size="14" lengthAdjust="spacing" textLength="166" x="646.36" y="654.6426">Domain Services / Policies</text></g><!--entity DomainEvents--><g id="elem_DomainEvents"><rect fill="#F1F1F1" height="37.6094" rx="2.5" ry="2.5" style="stroke:#181818;stroke-width:0.5;" width="115" x="625.86" y="854.1094"/><text fill="#000000" font-family="sans-serif" font-size="14" lengthAdjust="spacing" textLength="95" x="635.86" y="878.6426">Domain Events</text></g><!--entity RepoInterfaces--><g id="elem_RepoInterfaces"><rect fill="#F1F1F1" height="37.6094" rx="2.5" ry="2.5" style="stroke:#181818;stroke-width:0.5;" width="154" x="857.36" y="630.1094"/><text fill="#000000" font-family="sans-serif" font-size="14" lengthAdjust="spacing" textLength="134" x="867.36" y="654.6426">Repository Interfaces</text></g><!--entity Models--><g id="elem_Models"><rect fill="#F1F1F1" height="37.6094" rx="2.5" ry="2.5" style="stroke:#181818;stroke-width:0.5;" width="150" x="1863.36" y="739.1094"/><text fill="#000000" font-family="sans-serif" font-size="14" lengthAdjust="spacing" textLength="130" x="1873.36" y="763.6426">SQLAlchemy Models</text></g><!--entity Repositories--><g id="elem_Repositories"><rect fill="#F1F1F1" height="37.6094" rx="2.5" ry="2.5" style="stroke:#181818;stroke-width:0.5;" width="184" x="1883.36" y="506.1094"/><text fill="#000000" font-family="sans-serif" font-size="14" lengthAdjust="spacing" textLength="164" x="1893.36" y="530.6426">SQLAlchemy Repositories</text></g><!--entity Mappers--><g id="elem_Mappers"><rect fill="#F1F1F1" height="37.6094" rx="2.5" ry="2.5" style="stroke:#181818;stroke-width:0.5;" width="75" x="1863.86" y="630.1094"/><text fill="#000000" font-family="sans-serif" font-size="14" lengthAdjust="spacing" textLength="55" x="1873.86" y="654.6426">Mappers</text></g><!--entity UoW--><g id="elem_UoW"><rect fill="#F1F1F1" height="37.6094" rx="2.5" ry="2.5" style="stroke:#181818;stroke-width:0.5;" width="97" x="1750.86" y="506.1094"/><text fill="#000000" font-family="sans-serif" font-size="14" lengthAdjust="spacing" textLength="77" x="1760.86" y="530.6426">Unit of Work</text></g><!--entity Services--><g id="elem_Services"><rect fill="#F1F1F1" height="37.6094" rx="2.5" ry="2.5" style="stroke:#181818;stroke-width:0.5;" width="183" x="1532.86" y="506.1094"/><text fill="#000000" font-family="sans-serif" font-size="14" lengthAdjust="spacing" textLength="163" x="1542.86" y="530.6426">External Service Adapters</text></g><!--entity PostgreSQL--><g id="elem_PostgreSQL"><path d="M1889.86,859.6094 C1889.86,849.6094 1938.36,849.6094 1938.36,849.6094 C1938.36,849.6094 1986.86,849.6094 1986.86,859.6094 L1986.86,886.2188 C1986.86,896.2188 1938.36,896.2188 1938.36,896.2188 C1938.36,896.2188 1889.86,896.2188 1889.86,886.2188 L1889.86,859.6094 " fill="#F1F1F1" style="stroke:#181818;stroke-width:0.5;"/><path d="M1889.86,859.6094 C1889.86,869.6094 1938.36,869.6094 1938.36,869.6094 C1938.36,869.6094 1986.86,869.6094 1986.86,859.6094 " fill="none" style="stroke:#181818;stroke-width:0.5;"/><text fill="#000000" font-family="sans-serif" font-size="14" lengthAdjust="spacing" textLength="77" x="1899.86" y="888.1426">PostgreSQL</text></g><!--entity Organizer--><g id="elem_Organizer"><ellipse cx="2016.36" cy="96.6094" fill="#F1F1F1" rx="8" ry="8" style="stroke:#181818;stroke-width:0.5;"/><path d="M2016.36,104.6094 L2016.36,131.6094 M2003.36,112.6094 L2029.36,112.6094 M2016.36,131.6094 L2003.36,146.6094 M2016.36,131.6094 L2029.36,146.6094 " fill="none" style="stroke:#181818;stroke-width:0.5;"/><text fill="#000000" font-family="sans-serif" font-size="14" lengthAdjust="spacing" textLength="102" x="1965.36" y="162.6426">Event Organizer</text></g><!--entity Customer--><g id="elem_Customer"><ellipse cx="2133.36" cy="96.6094" fill="#F1F1F1" rx="8" ry="8" style="stroke:#181818;stroke-width:0.5;"/><path d="M2133.36,104.6094 L2133.36,131.6094 M2120.36,112.6094 L2146.36,112.6094 M2133.36,131.6094 L2120.36,146.6094 M2133.36,131.6094 L2146.36,146.6094 " fill="none" style="stroke:#181818;stroke-width:0.5;"/><text fill="#000000" font-family="sans-serif" font-size="14" lengthAdjust="spacing" textLength="61" x="2102.86" y="162.6426">Customer</text></g><!--entity GateOfficer--><g id="elem_GateOfficer"><ellipse cx="1767.36" cy="96.6094" fill="#F1F1F1" rx="8" ry="8" style="stroke:#181818;stroke-width:0.5;"/><path d="M1767.36,104.6094 L1767.36,131.6094 M1754.36,112.6094 L1780.36,112.6094 M1767.36,131.6094 L1754.36,146.6094 M1767.36,131.6094 L1780.36,146.6094 " fill="none" style="stroke:#181818;stroke-width:0.5;"/><text fill="#000000" font-family="sans-serif" font-size="14" lengthAdjust="spacing" textLength="77" x="1728.86" y="162.6426">Gate Officer</text></g><!--entity Admin--><g id="elem_Admin"><ellipse cx="1885.36" cy="96.6094" fill="#F1F1F1" rx="8" ry="8" style="stroke:#181818;stroke-width:0.5;"/><path d="M1885.36,104.6094 L1885.36,131.6094 M1872.36,112.6094 L1898.36,112.6094 M1885.36,131.6094 L1872.36,146.6094 M1885.36,131.6094 L1898.36,146.6094 " fill="none" style="stroke:#181818;stroke-width:0.5;"/><text fill="#000000" font-family="sans-serif" font-size="14" lengthAdjust="spacing" textLength="89" x="1840.86" y="162.6426">System Admin</text></g><g id="elem_GMN66"><path d="M2115.86,627.6094 L2115.86,670.3125 L2384.86,670.3125 L2384.86,637.6094 L2374.86,627.6094 L2115.86,627.6094 " fill="#FEFFDD" style="stroke:#181818;stroke-width:0.5;"/><path d="M2374.86,627.6094 L2374.86,637.6094 L2384.86,637.6094 L2374.86,627.6094 " fill="#FEFFDD" style="stroke:#181818;stroke-width:1.0;"/><text fill="#000000" font-family="sans-serif" font-size="13" lengthAdjust="spacing" textLength="193" x="2121.86" y="646.1045">Domain layer has no dependency</text><text fill="#000000" font-family="sans-serif" font-size="13" lengthAdjust="spacing" textLength="248" x="2121.86" y="662.4561">on FastAPI, SQLAlchemy, or PostgreSQL.</text></g><g id="elem_GMN69"><path d="M1227.36,627.6094 L1227.36,670.3125 L1465.36,670.3125 L1465.36,637.6094 L1455.36,627.6094 L1227.36,627.6094 " fill="#FEFFDD" style="stroke:#181818;stroke-width:0.5;"/><path d="M1455.36,627.6094 L1455.36,637.6094 L1465.36,637.6094 L1455.36,627.6094 " fill="#FEFFDD" style="stroke:#181818;stroke-width:1.0;"/><text fill="#000000" font-family="sans-serif" font-size="13" lengthAdjust="spacing" textLength="217" x="1233.36" y="646.1045">Infrastructure implements persistence</text><text fill="#000000" font-family="sans-serif" font-size="13" lengthAdjust="spacing" textLength="179" x="1233.36" y="662.4561">and external service interfaces.</text></g><!--link Organizer to Routers--><g id="link_Organizer_Routers"><path d="M1965.03,158.1294 C1959.17,161.0294 1953.2,163.7594 1947.36,166.1094 C1863.76,199.7094 1768.7087,223.0409 1701.9587,237.2409 " fill="none" id="Organizer-to-Routers" style="stroke:#181818;stroke-width:1.0;"/><polygon fill="#181818" points="1696.09,238.4894,1705.7253,240.5291,1700.9806,237.449,1704.0607,232.7042,1696.09,238.4894" style="stroke:#181818;stroke-width:1.0;"/></g><!--link Customer to Routers--><g id="link_Customer_Routers"><path d="M2102.78,155.7994 C2097.27,159.7394 2091.36,163.3794 2085.36,166.1094 C1956.52,224.7894 1796.0975,243.2722 1702.2275,249.3422 " fill="none" id="Customer-to-Routers" style="stroke:#181818;stroke-width:1.0;"/><polygon fill="#181818" points="1696.24,249.7294,1705.4794,253.1403,1701.2296,249.4067,1704.9631,245.1569,1696.24,249.7294" style="stroke:#181818;stroke-width:1.0;"/></g><!--link GateOfficer to Routers--><g id="link_GateOfficer_Routers"><path d="M1728.77,161.4694 C1705.45,181.6394 1680.6496,203.0861 1658.8496,221.9261 " fill="none" id="GateOfficer-to-Routers" style="stroke:#181818;stroke-width:1.0;"/><polygon fill="#181818" points="1654.31,225.8494,1663.7349,222.9909,1658.093,222.58,1658.5039,216.9381,1654.31,225.8494" style="stroke:#181818;stroke-width:1.0;"/></g><!--link Admin to Routers--><g id="link_Admin_Routers"><path d="M1840.75,156.4794 C1834.97,159.8494 1829.08,163.1394 1823.36,166.1094 C1780.39,188.4294 1735.9438,207.7789 1696.6838,223.8289 " fill="none" id="Admin-to-Routers" style="stroke:#181818;stroke-width:1.0;"/><polygon fill="#181818" points="1691.13,226.0994,1700.9744,226.3962,1695.7582,224.2073,1697.9471,218.9911,1691.13,226.0994" style="stroke:#181818;stroke-width:1.0;"/></g><!--link FastAPIApp to Routers--><g id="link_FastAPIApp_Routers"><path d="M1623.36,154.8194 C1623.36,175.8194 1623.36,198.9494 1623.36,219.9494 " fill="none" id="FastAPIApp-to-Routers" style="stroke:#181818;stroke-width:1.0;"/><polygon fill="#181818" points="1623.36,225.9494,1627.36,216.9494,1623.36,220.9494,1619.36,216.9494,1623.36,225.9494" style="stroke:#181818;stroke-width:1.0;"/></g><!--link Routers to Schemas--><g id="link_Routers_Schemas"><path d="M1574.33,281.2494 C1541.18,299.2594 1502.8519,320.0745 1469.6919,338.0945 " fill="none" id="Routers-to-Schemas" style="stroke:#181818;stroke-width:1.0;"/><polygon fill="#181818" points="1464.42,340.9594,1474.2377,340.1767,1468.8132,338.572,1470.4179,333.1475,1464.42,340.9594" style="stroke:#181818;stroke-width:1.0;"/></g><!--link Routers to Dependencies--><g id="link_Routers_Dependencies"><path d="M1623.6,281.3894 C1623.76,299.3994 1623.9166,317.0496 1624.0766,335.0196 " fill="none" id="Routers-to-Dependencies" style="stroke:#181818;stroke-width:1.0;"/><polygon fill="#181818" points="1624.13,341.0194,1628.0497,331.9841,1624.0855,336.0196,1620.05,332.0553,1624.13,341.0194" style="stroke:#181818;stroke-width:1.0;"/></g><!--link Dependencies to CommandHandlers--><g id="link_Dependencies_CommandHandlers"><path d="M1585.21,396.2394 C1569.98,405.3194 1551.97,414.5794 1534.36,420.1094 C1510.6,427.5794 783.9445,495.1473 548.4545,516.9073 " fill="none" id="Dependencies-to-CommandHandlers" style="stroke:#181818;stroke-width:1.0;"/><polygon fill="#181818" points="542.48,517.4594,551.8099,520.6143,547.4588,516.9993,551.0738,512.6482,542.48,517.4594" style="stroke:#181818;stroke-width:1.0;"/></g><!--link Dependencies to QueryHandlers--><g id="link_Dependencies_QueryHandlers"><path d="M1586.78,396.2894 C1571.3,405.7494 1552.72,415.2394 1534.36,420.1094 C1472.44,436.5194 442.14,407.8694 381.36,428.1094 C334.78,443.6194 295.3468,478.5211 272.3968,501.7511 " fill="none" id="Dependencies-to-QueryHandlers" style="stroke:#181818;stroke-width:1.0;"/><polygon fill="#181818" points="268.18,506.0194,277.3508,502.4282,271.694,502.4625,271.6597,496.8057,268.18,506.0194" style="stroke:#181818;stroke-width:1.0;"/></g><!--link CommandHandlers to Commands--><g id="link_CommandHandlers_Commands"><path d="M398.26,538.6494 C389.05,542.0994 380.14,546.4994 372.36,552.1094 C344.71,572.0494 328.2764,602.6743 318.8264,624.4743 " fill="none" id="CommandHandlers-to-Commands" style="stroke:#181818;stroke-width:1.0;"/><polygon fill="#181818" points="316.44,629.9794,323.6895,623.3127,318.4286,625.3919,316.3495,620.1309,316.44,629.9794" style="stroke:#181818;stroke-width:1.0;"/></g><!--link CommandHandlers to AppInterfaces--><g id="link_CommandHandlers_AppInterfaces"><path d="M469.92,544.1094 C469.35,567.1794 468.5154,600.9311 467.9554,624.0311 " fill="none" id="CommandHandlers-to-AppInterfaces" style="stroke:#181818;stroke-width:1.0;"/><polygon fill="#181818" points="467.81,630.0294,472.0269,621.129,467.9312,625.0308,464.0293,620.9351,467.81,630.0294" style="stroke:#181818;stroke-width:1.0;"/></g><!--link CommandHandlers to RepoInterfaces--><g id="link_CommandHandlers_RepoInterfaces"><path d="M542.69,525.1694 C635.1,524.9994 789.22,528.4694 840.36,552.1094 C876.99,569.0394 903.645,601.9823 919.285,624.7723 " fill="none" id="CommandHandlers-to-RepoInterfaces" style="stroke:#181818;stroke-width:1.0;"/><polygon fill="#181818" points="922.68,629.7194,920.8855,620.0354,919.8508,625.5968,914.2894,624.5621,922.68,629.7194" style="stroke:#181818;stroke-width:1.0;"/></g><!--link CommandHandlers to Aggregates--><g id="link_CommandHandlers_Aggregates"><path d="M398.26,536.6294 C375.9,539.5194 351.15,542.3394 328.36,544.1094 C312.9,545.3094 60.17,540.9894 49.36,552.1094 C6,596.7294 7.16,646.3794 49.36,692.1094 C97.68,744.4694 569.1303,754.6095 766.5703,756.5795 " fill="none" id="CommandHandlers-to-Aggregates" style="stroke:#181818;stroke-width:1.0;"/><polygon fill="#181818" points="772.57,756.6394,763.6104,752.5498,767.5702,756.5895,763.5305,760.5494,772.57,756.6394" style="stroke:#181818;stroke-width:1.0;"/></g><!--link CommandHandlers to DomainServices--><g id="link_CommandHandlers_DomainServices"><path d="M542.69,528.1694 C571.81,531.3794 604.93,538.1894 632.36,552.1094 C668.7,570.5494 696.4135,602.7393 713.0335,625.0293 " fill="none" id="CommandHandlers-to-DomainServices" style="stroke:#181818;stroke-width:1.0;"/><polygon fill="#181818" points="716.62,629.8394,714.4469,620.2332,713.6312,625.831,708.0335,625.0153,716.62,629.8394" style="stroke:#181818;stroke-width:1.0;"/></g><!--link QueryHandlers to Queries--><g id="link_QueryHandlers_Queries"><path d="M191.67,534.1094 C178.43,537.9694 165.14,543.6694 154.36,552.1094 C128.73,572.1794 115.5661,602.5702 108.4061,624.3202 " fill="none" id="QueryHandlers-to-Queries" style="stroke:#181818;stroke-width:1.0;"/><polygon fill="#181818" points="106.53,630.0194,113.1436,622.7214,108.0934,625.2701,105.5448,620.2199,106.53,630.0194" style="stroke:#181818;stroke-width:1.0;"/></g><!--link QueryHandlers to AppInterfaces--><g id="link_QueryHandlers_AppInterfaces"><path d="M311.02,531.9194 C331.38,535.6894 353.71,541.8894 372.36,552.1094 C407.53,571.3694 434.5119,602.9305 450.9419,624.9505 " fill="none" id="QueryHandlers-to-AppInterfaces" style="stroke:#181818;stroke-width:1.0;"/><polygon fill="#181818" points="454.53,629.7594,452.3538,620.154,451.5399,625.752,445.9419,624.9381,454.53,629.7594" style="stroke:#181818;stroke-width:1.0;"/></g><!--link QueryHandlers to DTOs--><g id="link_QueryHandlers_DTOs"><path d="M243.84,544.1094 C234.19,567.1794 219.8828,601.393 210.2328,624.493 " fill="none" id="QueryHandlers-to-DTOs" style="stroke:#181818;stroke-width:1.0;"/><polygon fill="#181818" points="207.92,630.0294,215.0801,623.2667,209.8473,625.4158,207.6983,620.183,207.92,630.0294" style="stroke:#181818;stroke-width:1.0;"/></g><!--link Aggregates to Entities--><g id="link_Aggregates_Entities"><path d="M857.36,785.8894 C857.36,803.8994 857.36,821.5494 857.36,839.5194 " fill="none" id="Aggregates-to-Entities" style="stroke:#181818;stroke-width:1.0;"/><polygon fill="#181818" points="857.36,845.5194,861.36,836.5194,857.36,840.5194,853.36,836.5194,857.36,845.5194" style="stroke:#181818;stroke-width:1.0;"/></g><!--link Aggregates to ValueObjects--><g id="link_Aggregates_ValueObjects"><path d="M908.98,785.7494 C943.89,803.7594 984.4684,824.6873 1019.3784,842.7073 " fill="none" id="Aggregates-to-ValueObjects" style="stroke:#181818;stroke-width:1.0;"/><polygon fill="#181818" points="1024.71,845.4594,1018.5473,837.7768,1020.267,843.166,1014.8779,844.8856,1024.71,845.4594" style="stroke:#181818;stroke-width:1.0;"/></g><!--link Aggregates to DomainEvents--><g id="link_Aggregates_DomainEvents"><path d="M816.13,785.8894 C783.77,806.8994 744.6326,832.3225 716.3026,850.7125 " fill="none" id="Aggregates-to-DomainEvents" style="stroke:#181818;stroke-width:1.0;"/><polygon fill="#181818" points="711.27,853.9794,720.9969,852.4342,715.4639,851.257,716.6411,845.724,711.27,853.9794" style="stroke:#181818;stroke-width:1.0;"/></g><!--link DomainServices to Aggregates--><g id="link_DomainServices_Aggregates"><path d="M751.07,668.2594 C771.47,685.3094 797.647,707.1907 820.837,726.5807 " fill="none" id="DomainServices-to-Aggregates" style="stroke:#181818;stroke-width:1.0;"/><polygon fill="#181818" points="825.44,730.4294,821.1013,721.5877,821.6042,727.2221,815.9697,727.725,825.44,730.4294" style="stroke:#181818;stroke-width:1.0;"/></g><!--link RepoInterfaces to Aggregates--><g id="link_RepoInterfaces_Aggregates"><path d="M921.3,668.2594 C909.03,685.3094 894.0257,706.1701 880.0657,725.5601 " fill="none" id="RepoInterfaces-to-Aggregates" style="stroke:#181818;stroke-width:1.0;"/><polygon fill="#181818" points="876.56,730.4294,885.0647,725.4626,879.4814,726.3716,878.5723,720.7883,876.56,730.4294" style="stroke:#181818;stroke-width:1.0;"/></g><!--link Repositories to RepoInterfaces--><g id="link_Repositories_RepoInterfaces"><path d="M1883.36,542.2094 C1877.28,542.9494 1871.24,543.5994 1865.36,544.1094 C1792.85,550.4494 1282.05,539.5494 1210.36,552.1094 C1122.91,567.4294 1042.5062,599.376 989.9562,622.666 " fill="none" id="Repositories-to-RepoInterfaces" style="stroke:#181818;stroke-width:1.0;stroke-dasharray:7.0,7.0;"/><polygon fill="none" points="973.5,629.9594,992.3873,628.1514,987.5251,617.1806,973.5,629.9594" style="stroke:#181818;stroke-width:1.0;"/></g><!--link Repositories to Mappers--><g id="link_Repositories_Mappers"><path d="M1964.44,544.1094 C1950.45,567.1794 1929.4514,601.7992 1915.4414,624.8992 " fill="none" id="Repositories-to-Mappers" style="stroke:#181818;stroke-width:1.0;"/><polygon fill="#181818" points="1912.33,630.0294,1920.4173,624.4084,1914.9229,625.7542,1913.577,620.2598,1912.33,630.0294" style="stroke:#181818;stroke-width:1.0;"/></g><!--link Repositories to Models--><g id="link_Repositories_Models"><path d="M1974.22,544.1794 C1972.08,574.8294 1966.72,638.8594 1956.36,692.1094 C1953.23,708.1994 1949.8986,720.3929 1945.9286,733.3429 " fill="none" id="Repositories-to-Models" style="stroke:#181818;stroke-width:1.0;"/><polygon fill="#181818" points="1944.17,739.0794,1950.6322,731.647,1945.6355,734.299,1942.9836,729.3022,1944.17,739.0794" style="stroke:#181818;stroke-width:1.0;"/></g><!--link Models to PostgreSQL--><g id="link_Models_PostgreSQL"><path d="M1938.36,777.2694 C1938.36,796.8594 1938.36,822.0894 1938.36,843.3194 " fill="none" id="Models-to-PostgreSQL" style="stroke:#181818;stroke-width:1.0;"/><polygon fill="#181818" points="1938.36,849.3194,1942.36,840.3194,1938.36,844.3194,1934.36,840.3194,1938.36,849.3194" style="stroke:#181818;stroke-width:1.0;"/></g><!--link Mappers to Aggregates--><g id="link_Mappers_Aggregates"><path d="M1863.59,653.9794 C1713.43,669.3694 1162.5587,725.8276 948.1987,747.7976 " fill="none" id="Mappers-to-Aggregates" style="stroke:#181818;stroke-width:1.0;"/><polygon fill="#181818" points="942.23,748.4094,951.5909,751.4709,947.2039,747.8996,950.7753,743.5126,942.23,748.4094" style="stroke:#181818;stroke-width:1.0;"/></g><!--link Mappers to Models--><g id="link_Mappers_Models"><path d="M1907.64,668.2594 C1914.44,687.9394 1923.2806,713.4883 1930.0906,733.1983 " fill="none" id="Mappers-to-Models" style="stroke:#181818;stroke-width:1.0;"/><polygon fill="#181818" points="1932.05,738.8694,1932.8916,729.0565,1930.4172,734.1435,1925.3302,731.6691,1932.05,738.8694" style="stroke:#181818;stroke-width:1.0;"/></g><!--link UoW to AppInterfaces--><g id="link_UoW_AppInterfaces"><path d="M1750.64,540.9094 C1744.86,542.2194 1739.01,543.3294 1733.36,544.1094 C1701.77,548.4494 615.37,541.3294 585.36,552.1094 C541.87,567.7394 514.6021,593.356 494.1621,616.546 " fill="none" id="UoW-to-AppInterfaces" style="stroke:#181818;stroke-width:1.0;stroke-dasharray:7.0,7.0;"/><polygon fill="none" points="482.26,630.0494,498.6632,620.5134,489.6609,612.5787,482.26,630.0494" style="stroke:#181818;stroke-width:1.0;"/></g><!--link Services to AppInterfaces--><g id="link_Services_AppInterfaces"><path d="M1532.64,543.7694 C1531.54,543.8894 1530.45,543.9994 1529.36,544.1094 C1503.26,546.6694 610.03,543.2194 585.36,552.1094 C541.88,567.7694 514.6017,593.3757 494.1717,616.5557 " fill="none" id="Services-to-AppInterfaces" style="stroke:#181818;stroke-width:1.0;stroke-dasharray:7.0,7.0;"/><polygon fill="none" points="482.27,630.0594,498.6729,620.5229,489.6704,612.5884,482.27,630.0594" style="stroke:#181818;stroke-width:1.0;"/></g><!--link Repositories to AppInterfaces--><g id="link_Repositories_AppInterfaces"><path d="M1883.06,542.2794 C1877.09,542.9994 1871.15,543.6194 1865.36,544.1094 C1829.93,547.0994 618.83,540.0994 585.36,552.1094 C541.86,567.7194 514.5859,593.3406 494.1559,616.5406 " fill="none" id="Repositories-to-AppInterfaces" style="stroke:#181818;stroke-width:1.0;stroke-dasharray:7.0,7.0;"/><polygon fill="none" points="482.26,630.0494,498.6588,620.5059,489.653,612.5753,482.26,630.0494" style="stroke:#181818;stroke-width:1.0;"/></g><!--link Dependencies to Repositories--><g id="link_Dependencies_Repositories"><path d="M1696.6,377.9394 C1746.21,385.8094 1812.41,400.6894 1865.36,428.1094 C1903.85,448.0394 1935.9705,479.7338 1955.7305,501.5338 " fill="none" id="Dependencies-to-Repositories" style="stroke:#181818;stroke-width:1.0;"/><polygon fill="#181818" points="1959.76,505.9794,1956.6794,496.6247,1956.4021,502.2748,1950.752,501.9974,1959.76,505.9794" style="stroke:#181818;stroke-width:1.0;"/></g><!--link Dependencies to UoW--><g id="link_Dependencies_UoW"><path d="M1685.96,396.1294 C1702.4,404.8894 1719.44,415.6394 1733.36,428.1094 C1758.67,450.7794 1776.3596,479.7436 1787.4796,500.6236 " fill="none" id="Dependencies-to-UoW" style="stroke:#181818;stroke-width:1.0;"/><polygon fill="#181818" points="1790.3,505.9194,1789.6,496.0954,1787.9497,501.5062,1782.5389,499.8559,1790.3,505.9194" style="stroke:#181818;stroke-width:1.0;"/></g><!--link Dependencies to Services--><g id="link_Dependencies_Services"><path d="M1624.36,396.1694 C1624.36,427.5694 1624.36,472.9894 1624.36,500.0894 " fill="none" id="Dependencies-to-Services" style="stroke:#181818;stroke-width:1.0;"/><polygon fill="#181818" points="1624.36,506.0894,1628.36,497.0894,1624.36,501.0894,1620.36,497.0894,1624.36,506.0894" style="stroke:#181818;stroke-width:1.0;"/></g><!--link Domain to GMN66--><g id="link_Domain_GMN66"><path d="M599.8864,568.0532 C599.9447,567.9048 600.0035,567.7567 600.0629,567.6089 C600.1816,567.3132 600.3024,567.0185 600.4255,566.7248 C600.6716,566.1374 600.9264,565.5542 601.1902,564.9755 C603.3006,560.3459 605.985,556.0031 609.36,552.1094 C614.59,546.0794 618.93,548.9994 626.86,548.1094 C666.58,543.6294 2026.14,543.6294 2065.86,548.1094 C2129.54,555.2994 2192.62,600.0994 2226,627.5594 " fill="none" id="Domain-GMN66" style="stroke:#181818;stroke-width:1.0;stroke-dasharray:7.0,7.0;"/></g><!--link Infrastructure to GMN69--><g id="link_Infrastructure_GMN69"><path d="M1489.3224,532.6029 C1488.912,532.9344 1488.4877,533.2772 1488.05,533.6309 C1486.2991,535.0454 1484.3331,536.6337 1482.18,538.3733 C1473.5675,545.3316 1461.96,554.71 1449.14,565.0681 C1423.5,585.7844 1393.01,610.4194 1371.93,627.4494 " fill="none" id="Infrastructure-GMN69" style="stroke:#181818;stroke-width:1.0;stroke-dasharray:7.0,7.0;"/></g><!--SRC=[TLR9Sjim3BtpAp0vE_OVTCQrksGc7YTsqXoQ7XY9bbbBf4fIQTNbtmjkCYavbrXyxm44802AuQPcyE6L2GCRAcZ56lkuxxLX3Lp3gcPKm58LHsvOOJh52D4dBbggQ0CjBKveiZSzEb78Kr7LB14KiccbG8zlI_IHbl8d5nKSQAtHVN0ALtUAQJIbXai1jxHdwbbeLIpQ1By2gY4J_Y40NpzIRPPtDx1issVHK2xcRV_DIWE1k9LPoKvsXYazTRsWBNSsGM4DTkn7nxHPx9Z6l3I3VN5a3RrahJtZF0ILzR1cBHCb4qKFJrnXsizu2X1dEiQvJZ3oBoaAHbxpOb8JUePTILAPgyXADWqLfOyd7X82FkEV6jDC1H6pklkEAGp6qU4vmdrkxA3KTFsmzOnzS7LFehiHMDm3BO9hfCv8blbQsXUP9bqwnEKRI9VgigeKgwXX-5fSPy_WlPJOSDKCTkpGYTBVDCYiqGTXkE7Mv84N9sPMI5HIzJFmPsSIHTRW2wqx1jkNxzZJQBN1DaVn6irssE9i1djiX4w7j9mwY5r9VBnxfbuv9WeBk9DOabXWJqSsCN3vf1eF-DvifUO6OnxNr39l5FL671IEXEhSRAV5vHdZYZmIksBlxs-NjMtl7ZQoPBM_qJ-E-250diGL0QlTO1V79WhF5duKt80ym9DK9ySzoYVtodvXIeBMiOgmB6bheeEaU2Krz8LgkrAaDlZMCIY_E8QZBGejC1Iuyijmgoeg-6-cd70uHT6gqqOsWOs7I7x29e3juO3NUu45mZbgmePTbateOFT4o70JN5-_6rPFl2434wyPxZnb23cllGmFlmwBEoh5iYsK7XmxNX8JGRu8o4YV-j0NoNmNN5ACElkYa_EONw97aqQoc8SiRFvJ9ezlohjrHyu1E73O8ICysn0ZBXlrFE9nZdb5nYn9Hmxcyx-J4cO2Qnq7SKhu6VS_3ad6ALYDxq_XO4zmcdqaUJc712zmqonoVjgAsQgPi7QXJC1pJmY9ywnuTNHhoDS_l0QexSQ48mwma31yoNk2NxOmTFWb67RW373spsMQ4vI3THykUP46vzpUakzQCbgzl6bhzv-Q1bjFZhj458pOxpYBMr67hSY7kYJN_GS0]--></g></svg>